<svg width="20" height="20" viewBox="0 0 20 20" fill="none" xmlns="http://www.w3.org/2000/svg">
<mask id="mask0_882_10059" style="mask-type:alpha" maskUnits="userSpaceOnUse" x="0" y="0" width="20" height="20">
<rect width="20" height="20" fill="#D9D9D9"/>
</mask>
<g mask="url(#mask0_882_10059)">
<path d="M8.83329 13.8332L14.7083 7.95817L13.5416 6.7915L8.83329 11.4998L6.45829 9.12484L5.29163 10.2915L8.83329 13.8332ZM9.99996 18.3332C8.84718 18.3332 7.76385 18.1144 6.74996 17.6769C5.73607 17.2394 4.85413 16.6457 4.10413 15.8957C3.35413 15.1457 2.76038 14.2637 2.32288 13.2498C1.88538 12.2359 1.66663 11.1526 1.66663 9.99984C1.66663 8.84706 1.88538 7.76373 2.32288 6.74984C2.76038 5.73595 3.35413 4.854 4.10413 4.104C4.85413 3.354 5.73607 2.76025 6.74996 2.32275C7.76385 1.88525 8.84718 1.6665 9.99996 1.6665C11.1527 1.6665 12.2361 1.88525 13.25 2.32275C14.2638 2.76025 15.1458 3.354 15.8958 4.104C16.6458 4.854 17.2395 5.73595 17.677 6.74984C18.1145 7.76373 18.3333 8.84706 18.3333 9.99984C18.3333 11.1526 18.1145 12.2359 17.677 13.2498C17.2395 14.2637 16.6458 15.1457 15.8958 15.8957C15.1458 16.6457 14.2638 17.2394 13.25 17.6769C12.2361 18.1144 11.1527 18.3332 9.99996 18.3332Z" fill="white"/>
</g>
</svg>
